<?xml version="1.0" encoding="iso-8859-1"?>
<!-- Generator: Adobe Illustrator 19.0.0, SVG Export Plug-In . SVG Version: 6.00 Build 0)  -->
<svg version="1.1" id="Capa_1" xmlns="http://www.w3.org/2000/svg" xmlns:xlink="http://www.w3.org/1999/xlink" x="0px" y="0px"
	 viewBox="0 0 512 512" style="enable-background:new 0 0 512 512;" xml:space="preserve">
<path style="fill:#EDD7B0;" d="M414.994,239.023c-2.819,4.638-7.757,7.197-12.824,7.197c-2.649,0-5.338-0.7-7.776-2.189
	l-137.378-83.632L119.636,244.03c-2.429,1.489-5.128,2.189-7.777,2.189c-5.068,0-10.006-2.559-12.824-7.197
	c-4.308-7.077-2.059-16.293,5.008-20.601l145.175-88.38c0.03-0.02,0.06-0.04,0.09-0.05c0.29-0.18,0.6-0.34,0.9-0.49
	c0.15-0.08,0.29-0.16,0.44-0.23c0.25-0.12,0.51-0.22,0.77-0.32c0.21-0.08,0.42-0.18,0.63-0.25c0.17-0.06,0.35-0.11,0.52-0.16
	c0.3-0.09,0.59-0.19,0.89-0.26c0.09-0.03,0.18-0.04,0.27-0.06c0.38-0.08,0.77-0.16,1.149-0.22c0.09-0.01,0.17-0.01,0.26-0.02
	c0.39-0.05,0.77-0.1,1.159-0.12c0.24-0.01,0.48-0.01,0.72-0.01c0.16,0,0.31,0,0.46,0.01c0.08,0.01,0.16,0,0.24,0
	c1.299,0.06,2.609,0.31,3.878,0.72c0.13,0.04,0.26,0.07,0.38,0.11c0.24,0.09,0.47,0.19,0.71,0.29c0.23,0.09,0.46,0.18,0.69,0.29
	c0.16,0.07,0.32,0.16,0.48,0.25c0.29,0.14,0.58,0.3,0.87,0.46c0.03,0.02,0.06,0.04,0.09,0.06l145.175,88.38
	C417.063,222.73,419.302,231.946,414.994,239.023z"/>
<path style="fill:#E1BB78;" d="M414.994,239.023c-2.819,4.638-7.757,7.197-12.824,7.197c-2.649,0-5.338-0.7-7.776-2.189
	l-137.378-83.632v-32.545c0.16,0,0.31,0,0.46,0.01c0.08,0.01,0.16,0,0.24,0c1.299,0.06,2.609,0.31,3.878,0.72
	c0.13,0.04,0.26,0.07,0.38,0.11c0.24,0.09,0.47,0.19,0.71,0.29c0.23,0.09,0.46,0.18,0.69,0.29c0.16,0.07,0.32,0.16,0.48,0.25
	c0.29,0.14,0.58,0.3,0.87,0.46c0.03,0.02,0.06,0.04,0.09,0.06l145.175,88.38C417.063,222.73,419.302,231.946,414.994,239.023z"/>
<path style="fill:#A07651;" d="M296.137,121.226c0,21.57-17.552,39.122-39.122,39.122s-39.122-17.552-39.122-39.122
	s17.552-39.112,39.122-39.112S296.137,99.655,296.137,121.226z"/>
<path style="fill:#D2EB5A;" d="M512,299.725v46.669c0,46.029-37.453,83.492-83.492,83.492H83.492
	C37.453,429.887,0,392.424,0,346.394v-46.669c0-46.039,37.453-83.492,83.492-83.492h345.015
	C474.547,216.233,512,253.686,512,299.725z"/>
<path style="fill:#B4D241;" d="M512,299.725v46.669c0,46.029-37.453,83.492-83.492,83.492H257.015V216.233h171.493
	C474.547,216.233,512,253.686,512,299.725z"/>
<g>
	<path style="fill:#B5B51F;" d="M122.615,338v-31.903c0-9.791,2.688-16.974,8.066-21.549c5.376-4.575,12.519-6.862,21.428-6.862
		c8.988,0,16.172,2.288,21.549,6.862c5.376,4.575,8.066,11.759,8.066,21.549V338c0,9.793-2.69,16.974-8.066,21.549
		c-5.378,4.575-12.561,6.862-21.549,6.862c-8.909,0-16.053-2.288-21.428-6.862C125.304,354.975,122.615,347.793,122.615,338z
		 M141.395,338c0,8.026,3.57,12.039,10.714,12.039c7.224,0,10.835-4.012,10.835-12.039v-31.903c0-8.024-3.611-12.039-10.835-12.039
		c-7.144,0-10.714,4.014-10.714,12.039V338z"/>
	<path style="fill:#B5B51F;" d="M193.763,359.91v-76.566c0-1.523,0.642-2.848,1.926-3.973c1.283-1.122,2.969-1.685,5.057-1.685
		h24.92c8.586,0,15.47,2.227,20.646,6.682c5.177,4.454,7.766,11.457,7.766,21.008v0.602c0,9.552-2.709,16.595-8.126,21.128
		c-5.418,4.535-12.58,6.802-21.489,6.802h-11.918v26.003c0,1.847-0.924,3.272-2.769,4.274c-1.847,1.005-4.054,1.504-6.622,1.504
		c-2.569,0-4.776-0.5-6.621-1.504C194.684,363.182,193.763,361.758,193.763,359.91z M212.543,319.461h11.918
		c7.224,0,10.835-4.012,10.835-12.039v-1.324c0-8.024-3.611-12.039-10.835-12.039h-11.918V319.461z"/>
</g>
<g>
	<path style="fill:#98981A;" d="M262.26,359.91v-76.445c0-1.845,0.801-3.27,2.408-4.274c1.604-1.003,3.53-1.504,5.778-1.504h42.857
		c1.845,0,3.251,0.804,4.213,2.408c0.963,1.606,1.444,3.491,1.444,5.658c0,2.329-0.502,4.294-1.505,5.899
		c-1.005,1.606-2.389,2.408-4.153,2.408h-32.264v20.345h18.058c1.764,0,3.149,0.723,4.153,2.167
		c1.003,1.444,1.504,3.172,1.504,5.177c0,1.847-0.482,3.491-1.444,4.936c-0.963,1.444-2.368,2.167-4.213,2.167h-18.058v20.466
		h32.264c1.764,0,3.149,0.804,4.153,2.408c1.003,1.606,1.505,3.572,1.505,5.899c0,2.167-0.482,4.053-1.444,5.658
		c-0.963,1.606-2.368,2.408-4.213,2.408h-42.857c-2.248,0-4.174-0.5-5.778-1.504C263.061,363.182,262.26,361.758,262.26,359.91z"/>
	<path style="fill:#98981A;" d="M327.146,359.91v-76.445c0-1.845,0.922-3.27,2.769-4.274c1.845-1.003,4.052-1.504,6.621-1.504
		c3.611,0,6.279,0.523,8.005,1.565c1.725,1.044,3.671,3.652,5.838,7.825l19.502,37.199v-40.932c0-1.845,0.922-3.251,2.769-4.213
		c1.845-0.963,4.052-1.444,6.622-1.444c2.567,0,4.774,0.482,6.621,1.444c1.845,0.963,2.769,2.368,2.769,4.213v76.566
		c0,1.847-0.924,3.272-2.769,4.274c-1.847,1.005-4.054,1.504-6.621,1.504c-5.138,0-8.628-1.685-10.474-5.057l-22.873-41.653v40.931
		c0,1.847-0.924,3.272-2.769,4.274c-1.847,1.005-4.054,1.504-6.622,1.504c-2.569,0-4.776-0.5-6.621-1.504
		C328.068,363.182,327.146,361.758,327.146,359.91z"/>
</g>
<path style="fill:#7E5D40;" d="M257.015,160.348V82.113c21.57,0,39.122,17.542,39.122,39.112
	C296.137,142.796,278.585,160.348,257.015,160.348z"/>
<g>
</g>
<g>
</g>
<g>
</g>
<g>
</g>
<g>
</g>
<g>
</g>
<g>
</g>
<g>
</g>
<g>
</g>
<g>
</g>
<g>
</g>
<g>
</g>
<g>
</g>
<g>
</g>
<g>
</g>
</svg>
